<svg width="32" height="32" viewBox="0 0 32 32" fill="none" xmlns="http://www.w3.org/2000/svg">
<path d="M4 16C4 15.4696 4.21071 14.9608 4.58579 14.5858C4.96086 14.2107 5.46957 14 6 14H21.84L16.5867 8.74665C16.2334 8.36752 16.0411 7.86606 16.0502 7.34793C16.0593 6.82979 16.2692 6.33543 16.6357 5.969C17.0021 5.60256 17.4965 5.39266 18.0146 5.38352C18.5327 5.37438 19.0342 5.56671 19.4133 5.91999L28.08 14.5867C28.4545 14.9617 28.6649 15.47 28.6649 16C28.6649 16.53 28.4545 17.0383 28.08 17.4133L19.4133 26.08C19.0342 26.4333 18.5327 26.6256 18.0146 26.6165C17.4965 26.6073 17.0021 26.3974 16.6357 26.031C16.2692 25.6645 16.0593 25.1702 16.0502 24.652C16.0411 24.1339 16.2334 23.6325 16.5867 23.2533L21.84 18H6C5.46957 18 4.96086 17.7893 4.58579 17.4142C4.21071 17.0391 4 16.5304 4 16Z" fill="white"/>
</svg>
