<svg width="28" height="28" viewBox="0 0 28 28" fill="none" xmlns="http://www.w3.org/2000/svg">
<path d="M13.8843 10.8254V7.01583H9.919V4.47615H13.8843V0.666626H16.5278V4.47615H20.4931V7.01583H16.5278V10.8254H13.8843ZM8.59723 27.3333C7.87026 27.3333 7.24815 27.0848 6.7309 26.5879C6.21276 26.0901 5.9537 25.492 5.9537 24.7936C5.9537 24.0952 6.21276 23.4971 6.7309 22.9993C7.24815 22.5024 7.87026 22.2539 8.59723 22.2539C9.32421 22.2539 9.94632 22.5024 10.4636 22.9993C10.9817 23.4971 11.2408 24.0952 11.2408 24.7936C11.2408 25.492 10.9817 26.0901 10.4636 26.5879C9.94632 27.0848 9.32421 27.3333 8.59723 27.3333ZM21.8149 27.3333C21.0879 27.3333 20.4658 27.0848 19.9486 26.5879C19.4304 26.0901 19.1714 25.492 19.1714 24.7936C19.1714 24.0952 19.4304 23.4971 19.9486 22.9993C20.4658 22.5024 21.0879 22.2539 21.8149 22.2539C22.5419 22.2539 23.1644 22.5024 23.6826 22.9993C24.1998 23.4971 24.4584 24.0952 24.4584 24.7936C24.4584 25.492 24.1998 26.0901 23.6826 26.5879C23.1644 27.0848 22.5419 27.3333 21.8149 27.3333ZM8.59723 20.9841C7.60591 20.9841 6.84589 20.5659 6.31718 19.7295C5.78848 18.8939 5.77746 18.0635 6.28414 17.2381L8.06853 14.1269L3.31016 4.47615H0.666626V1.93647H4.99542L10.6129 13.365H19.8983L25.0202 4.47615L27.3333 5.6825L22.2114 14.5714C21.9691 14.9947 21.6497 15.3227 21.2532 15.5555C20.8566 15.7883 20.405 15.9047 19.8983 15.9047H10.0512L8.59723 18.4444H24.4584V20.9841H8.59723Z" fill="white"/>
</svg>
